<svg xmlns="http://www.w3.org/2000/svg" width="1600" height="1067" viewBox="0 0 1600 1067" role="img" aria-label="Winter valley landscape">
  <defs>
    <linearGradient id="sky" x1="0" y1="0" x2="0" y2="1">
      <stop offset="0%" stop-color="#F6F7FB"/>
      <stop offset="55%" stop-color="#E6E9F2"/>
      <stop offset="100%" stop-color="#D8DEE8"/>
    </linearGradient>

    <linearGradient id="cliffWarm" x1="0" y1="0" x2="1" y2="1">
      <stop offset="0%" stop-color="#B58E6F"/>
      <stop offset="45%" stop-color="#8A6B55"/>
      <stop offset="100%" stop-color="#5B4C43"/>
    </linearGradient>

    <linearGradient id="rockCool" x1="0" y1="0" x2="1" y2="1">
      <stop offset="0%" stop-color="#6E7883"/>
      <stop offset="55%" stop-color="#4A5662"/>
      <stop offset="100%" stop-color="#2F3944"/>
    </linearGradient>

    <linearGradient id="snow" x1="0" y1="0" x2="0" y2="1">
      <stop offset="0%" stop-color="#FFFFFF"/>
      <stop offset="100%" stop-color="#E9EDF4"/>
    </linearGradient>

    <linearGradient id="river" x1="0" y1="0" x2="0" y2="1">
      <stop offset="0%" stop-color="#3E4C58"/>
      <stop offset="50%" stop-color="#2B3741"/>
      <stop offset="100%" stop-color="#1B252D"/>
    </linearGradient>

    <filter id="soft" x="-20%" y="-20%" width="140%" height="140%">
      <feGaussianBlur stdDeviation="10"/>
    </filter>

    <filter id="grain" x="-10%" y="-10%" width="120%" height="120%">
      <feTurbulence type="fractalNoise" baseFrequency="0.9" numOctaves="2" stitchTiles="stitch"/>
      <feColorMatrix type="matrix" values="0 0 0 0 0
                                         0 0 0 0 0
                                         0 0 0 0 0
                                         0 0 0 .18 0"/>
      <feBlend mode="multiply" in2="SourceGraphic"/>
    </filter>
  </defs>

  <!-- Sky -->
  <rect width="1600" height="1067" fill="url(#sky)"/>

  <!-- Distant ridge -->
  <path d="M0 420 C 220 360, 340 390, 520 340 C 720 285, 880 330, 1060 290 C 1240 250, 1380 260, 1600 235 L1600 520 L0 520 Z" fill="#BFC7D3" opacity="0.65"/>

  <!-- Left granite wall -->
  <path d="M0 180 C 130 120, 210 135, 320 160 C 470 195, 520 240, 540 335 C 560 430, 520 520, 450 620 C 380 720, 250 800, 110 880 L0 930 Z" fill="url(#cliffWarm)"/>
  <path d="M40 210 C 180 170, 280 190, 360 210 C 440 230, 485 270, 505 350 C 525 430, 495 515, 430 595 C 360 680, 245 745, 100 820" fill="none" stroke="#2A2D33" stroke-opacity="0.22" stroke-width="14"/>

  <!-- Right cliffs -->
  <path d="M1110 210 C 1240 150, 1365 170, 1485 210 C 1565 235, 1600 290, 1600 420 L1600 720 C 1505 700, 1405 670, 1300 635 C 1160 585, 1080 525, 1025 445 C 970 365, 980 265, 1110 210 Z" fill="url(#rockCool)"/>
  <path d="M1030 320 C 1150 265, 1270 285, 1390 330" fill="none" stroke="#FFFFFF" stroke-opacity="0.20" stroke-width="16"/>

  <!-- Waterfall hint -->
  <path d="M1265 310 C 1250 420, 1260 520, 1255 640" stroke="#EAF0F8" stroke-width="18" stroke-linecap="round" opacity="0.55"/>
  <path d="M1278 320 C 1268 430, 1272 520, 1270 635" stroke="#DCE6F2" stroke-width="10" stroke-linecap="round" opacity="0.55"/>

  <!-- Treeline -->
  <g opacity="0.9">
    <path d="M0 560 C 160 520, 300 545, 460 520 C 640 490, 780 520, 960 500 C 1140 480, 1320 490, 1600 460 L1600 650 L0 650 Z" fill="#1F2D2B" opacity="0.55"/>
    <path d="M80 610 l22 -60 l22 60 z" fill="#253A36"/>
    <path d="M132 625 l26 -78 l26 78 z" fill="#1F3430"/>
    <path d="M220 615 l24 -72 l24 72 z" fill="#27413B"/>
    <path d="M340 630 l30 -92 l30 92 z" fill="#203833"/>
    <path d="M520 618 l26 -80 l26 80 z" fill="#2A4A42"/>
    <path d="M690 626 l28 -86 l28 86 z" fill="#23413A"/>
    <path d="M840 620 l24 -72 l24 72 z" fill="#2A4A42"/>
    <path d="M980 635 l34 -104 l34 104 z" fill="#1F3430"/>
    <path d="M1160 625 l28 -86 l28 86 z" fill="#2A4A42"/>
    <path d="M1360 640 l34 -104 l34 104 z" fill="#203833"/>
    <path d="M1500 628 l28 -86 l28 86 z" fill="#23413A"/>
  </g>

  <!-- Snowy meadow -->
  <path d="M0 650 C 240 620, 420 700, 620 680 C 820 660, 1000 640, 1160 660 C 1320 680, 1450 710, 1600 690 L1600 900 L0 900 Z" fill="url(#snow)"/>

  <!-- River -->
  <path d="M0 780 C 170 740, 340 770, 510 760 C 670 750, 860 710, 1040 725 C 1200 740, 1360 805, 1600 780 L1600 1067 L0 1067 Z" fill="url(#river)"/>

  <!-- Rocks in river -->
  <g fill="#0F161B" opacity="0.55">
    <ellipse cx="460" cy="900" rx="46" ry="28"/>
    <ellipse cx="560" cy="915" rx="34" ry="22"/>
    <ellipse cx="710" cy="890" rx="52" ry="30"/>
    <ellipse cx="980" cy="930" rx="60" ry="34"/>
    <ellipse cx="1120" cy="910" rx="40" ry="26"/>
    <ellipse cx="1280" cy="930" rx="54" ry="30"/>
  </g>

  <!-- Foreground log -->
  <g opacity="0.95">
    <path d="M760 965 C 915 920, 1110 915, 1310 970 C 1335 978, 1350 1000, 1345 1022 C 1340 1045, 1315 1052, 1285 1044 C 1095 990, 920 990, 790 1025 C 760 1033, 735 1022, 728 1002 C 722 982, 735 972, 760 965 Z" fill="#7A4F35"/>
    <path d="M790 1000 C 925 965, 1100 960, 1275 1008" fill="none" stroke="#4D2F1F" stroke-width="10" stroke-linecap="round" opacity="0.6"/>
  </g>

  <!-- Light grain for texture -->
  <rect width="1600" height="1067" filter="url(#grain)" opacity="0.55"/>
</svg>
